<mxfile host="app.diagrams.net" agent="Mozilla/5.0 (X11; Linux x86_64) AppleWebKit/537.36 (KHTML, like Gecko) Chrome/133.0.0.0 Safari/537.36" version="26.0.14">
  <diagram name="Page-1" id="e7e014a7-5840-1c2e-5031-d8a46d1fe8dd">
    <mxGraphModel dx="819" dy="431" grid="1" gridSize="10" guides="1" tooltips="1" connect="1" arrows="1" fold="1" page="1" pageScale="1" pageWidth="1169" pageHeight="826" background="none" math="0" shadow="0">
      <root>
        <mxCell id="0" />
        <mxCell id="1" parent="0" />
        <mxCell id="MJ4kscQ1FfEokvWsICFQ-41" value="" style="ellipse;html=1;shape=startState;labelBackgroundColor=none;" vertex="1" parent="1">
          <mxGeometry x="540" y="20" width="30" height="30" as="geometry" />
        </mxCell>
        <mxCell id="MJ4kscQ1FfEokvWsICFQ-42" value="" style="edgeStyle=orthogonalEdgeStyle;html=1;verticalAlign=bottom;endArrow=open;endSize=8;rounded=0;labelBackgroundColor=none;fontColor=default;" edge="1" source="MJ4kscQ1FfEokvWsICFQ-41" parent="1">
          <mxGeometry relative="1" as="geometry">
            <mxPoint x="555" y="110" as="targetPoint" />
          </mxGeometry>
        </mxCell>
        <mxCell id="MJ4kscQ1FfEokvWsICFQ-45" value="Enter email&lt;div&gt;and password&lt;/div&gt;" style="rounded=1;whiteSpace=wrap;html=1;arcSize=40;labelBackgroundColor=none;" vertex="1" parent="1">
          <mxGeometry x="495" y="110" width="120" height="40" as="geometry" />
        </mxCell>
        <mxCell id="MJ4kscQ1FfEokvWsICFQ-46" value="" style="edgeStyle=orthogonalEdgeStyle;html=1;verticalAlign=bottom;endArrow=open;endSize=8;rounded=0;labelBackgroundColor=none;fontColor=default;" edge="1" source="MJ4kscQ1FfEokvWsICFQ-45" parent="1">
          <mxGeometry relative="1" as="geometry">
            <mxPoint x="555" y="210" as="targetPoint" />
          </mxGeometry>
        </mxCell>
        <mxCell id="MJ4kscQ1FfEokvWsICFQ-47" value="Verify the informations" style="rounded=1;whiteSpace=wrap;html=1;arcSize=40;labelBackgroundColor=none;" vertex="1" parent="1">
          <mxGeometry x="495" y="210" width="120" height="40" as="geometry" />
        </mxCell>
        <mxCell id="MJ4kscQ1FfEokvWsICFQ-48" value="" style="edgeStyle=orthogonalEdgeStyle;html=1;verticalAlign=bottom;endArrow=open;endSize=8;rounded=0;labelBackgroundColor=none;fontColor=default;" edge="1" source="MJ4kscQ1FfEokvWsICFQ-47" parent="1">
          <mxGeometry relative="1" as="geometry">
            <mxPoint x="555" y="310" as="targetPoint" />
          </mxGeometry>
        </mxCell>
        <mxCell id="MJ4kscQ1FfEokvWsICFQ-49" value="" style="rhombus;whiteSpace=wrap;html=1;labelBackgroundColor=none;" vertex="1" parent="1">
          <mxGeometry x="515" y="310" width="80" height="40" as="geometry" />
        </mxCell>
        <mxCell id="MJ4kscQ1FfEokvWsICFQ-50" value="Invalid" style="edgeStyle=orthogonalEdgeStyle;html=1;align=left;verticalAlign=bottom;endArrow=open;endSize=8;rounded=0;entryX=0.5;entryY=1;entryDx=0;entryDy=0;labelBackgroundColor=none;fontColor=default;" edge="1" source="MJ4kscQ1FfEokvWsICFQ-49" parent="1" target="MJ4kscQ1FfEokvWsICFQ-52">
          <mxGeometry x="-1" relative="1" as="geometry">
            <mxPoint x="720" y="260" as="targetPoint" />
            <Array as="points">
              <mxPoint x="720" y="330" />
            </Array>
          </mxGeometry>
        </mxCell>
        <mxCell id="MJ4kscQ1FfEokvWsICFQ-51" value="valid" style="edgeStyle=orthogonalEdgeStyle;html=1;align=left;verticalAlign=top;endArrow=open;endSize=8;rounded=0;labelBackgroundColor=none;fontColor=default;" edge="1" source="MJ4kscQ1FfEokvWsICFQ-49" parent="1">
          <mxGeometry x="-1" relative="1" as="geometry">
            <mxPoint x="555" y="400" as="targetPoint" />
          </mxGeometry>
        </mxCell>
        <mxCell id="MJ4kscQ1FfEokvWsICFQ-52" value="Show error message" style="rounded=1;whiteSpace=wrap;html=1;arcSize=40;labelBackgroundColor=none;" vertex="1" parent="1">
          <mxGeometry x="660" y="190" width="120" height="40" as="geometry" />
        </mxCell>
        <mxCell id="MJ4kscQ1FfEokvWsICFQ-53" value="" style="edgeStyle=orthogonalEdgeStyle;html=1;verticalAlign=bottom;endArrow=open;endSize=8;rounded=0;entryX=1;entryY=0.5;entryDx=0;entryDy=0;labelBackgroundColor=none;fontColor=default;" edge="1" source="MJ4kscQ1FfEokvWsICFQ-52" parent="1" target="MJ4kscQ1FfEokvWsICFQ-45">
          <mxGeometry relative="1" as="geometry">
            <mxPoint x="720" y="290" as="targetPoint" />
            <Array as="points">
              <mxPoint x="720" y="130" />
            </Array>
          </mxGeometry>
        </mxCell>
        <mxCell id="MJ4kscQ1FfEokvWsICFQ-54" value="log in successfully&amp;nbsp;" style="rounded=1;whiteSpace=wrap;html=1;arcSize=40;labelBackgroundColor=none;" vertex="1" parent="1">
          <mxGeometry x="495" y="400" width="120" height="40" as="geometry" />
        </mxCell>
        <mxCell id="MJ4kscQ1FfEokvWsICFQ-55" value="" style="edgeStyle=orthogonalEdgeStyle;html=1;verticalAlign=bottom;endArrow=open;endSize=8;rounded=0;entryX=0.5;entryY=0;entryDx=0;entryDy=0;labelBackgroundColor=none;fontColor=default;" edge="1" source="MJ4kscQ1FfEokvWsICFQ-54" parent="1" target="MJ4kscQ1FfEokvWsICFQ-56">
          <mxGeometry relative="1" as="geometry">
            <mxPoint x="555" y="500" as="targetPoint" />
          </mxGeometry>
        </mxCell>
        <mxCell id="MJ4kscQ1FfEokvWsICFQ-56" value="" style="ellipse;html=1;shape=endState;labelBackgroundColor=none;" vertex="1" parent="1">
          <mxGeometry x="540" y="500" width="30" height="30" as="geometry" />
        </mxCell>
      </root>
    </mxGraphModel>
  </diagram>
</mxfile>
